<?xml version="1.0" encoding="utf-8"?>
<!-- Generator: Adobe Illustrator 23.0.3, SVG Export Plug-In . SVG Version: 6.00 Build 0)  -->
<svg version="1.1" id="레이어_1" xmlns="http://www.w3.org/2000/svg" xmlns:xlink="http://www.w3.org/1999/xlink" x="0px"
	 y="0px" viewBox="0 0 323.5 323.5" style="enable-background:new 0 0 323.5 323.5;" xml:space="preserve">
<g>
	<rect x="-2" y="0" width="332" height="25"/>
	<path d="M329.5,0.5v24h-331v-24H329.5 M330.5-0.5h-333v26h333V-0.5L330.5-0.5z"/>
</g>
<g>
	<rect x="-9" y="74.5" width="348" height="25"/>
	<path d="M338.5,75v24h-347V75H338.5 M339.5,74h-349v26h349V74L339.5,74z"/>
</g>
<g>
	<rect x="0.2" y="149" width="323" height="25"/>
	<path d="M322.7,149.5v24H0.7v-24H322.7 M323.7,148.5h-324v26h324V148.5L323.7,148.5z"/>
</g>
<g>
	<rect x="-32" y="223.5" width="366" height="25"/>
	<path d="M333.5,224v24h-365v-24H333.5 M334.5,223h-367v26h367V223L334.5,223z"/>
</g>
<g>
	<rect x="-20" y="298" width="352" height="25"/>
	<path d="M331.5,298.5v24h-351v-24H331.5 M332.5,297.5h-353v26h353V297.5L332.5,297.5z"/>
</g>
</svg>
