<?xml version="1.0" encoding="utf-8"?>
<!-- Generator: Adobe Illustrator 23.0.3, SVG Export Plug-In . SVG Version: 6.00 Build 0)  -->
<svg version="1.1" id="레이어_1" xmlns="http://www.w3.org/2000/svg" xmlns:xlink="http://www.w3.org/1999/xlink" x="0px"
	 y="0px" viewBox="0 0 323.5 323.5" style="enable-background:new 0 0 323.5 323.5;" xml:space="preserve">
<g>
	<path d="M90.6,274.5V56.9h67.6c14.8,0,27.9,1.8,39.4,5.3c11.5,3.5,20.6,9.2,27.2,17c6.6,7.8,9.9,18.2,9.9,31.2
		c0,7.1-1.2,13.8-3.7,20.1c-2.5,6.3-6,11.9-10.5,16.7c-4.5,4.8-10.1,8.3-16.8,10.5v1.5c12.4,2.6,22.6,8.1,30.7,16.7
		c8.1,8.6,12.1,20.2,12.1,35c0,14.4-3.6,26.3-10.8,35.7c-7.2,9.5-17,16.5-29.5,21.1c-12.5,4.6-26.8,6.9-43,6.9H90.6z M124.9,147.8
		h29.2c16.5,0,28.5-3,35.9-8.9c7.4-5.9,11.1-13.9,11.1-23.9c0-11.2-3.8-19.2-11.5-24.1c-7.7-4.8-19.2-7.2-34.6-7.2h-30.1V147.8z
		 M124.9,247.6h34.6c16.9,0,30.1-3.1,39.4-9.5c9.4-6.3,14-16,14-29.2c0-12.2-4.6-21.1-13.7-26.7c-9.2-5.6-22.4-8.4-39.7-8.4h-34.6
		V247.6z"/>
</g>
</svg>
