<svg xmlns="http://www.w3.org/2000/svg" viewBox="0 0 659 319"><defs><style>.a{font-size:200px;stroke:#fff;stroke-miterlimit:10;stroke-width:5px;font-family:yleeMHIM, ylee MHIM;}.a,.c{fill:#fff;}.b{letter-spacing:0.01em;}</style></defs><title>대지 1</title><text class="a" transform="translate(29.84 231.97)">A<tspan class="b" x="138.67" y="0">r</tspan><tspan x="185.64" y="0">tFind</tspan></text><path class="c" d="M585.94,25.42c-31.64,0-57.28,25.87-57.28,57.79S554.3,141,585.94,141s57.27-25.87,57.27-57.79S617.57,25.42,585.94,25.42Zm0,109.51c-28.31,0-51.26-23.16-51.26-51.72s23-51.72,51.26-51.72,51.25,23.16,51.25,51.72S614.24,134.93,585.94,134.93Z"/><path class="c" d="M625.76,94.44a13.36,13.36,0,0,0-15.14-11.36c-6.6,1.18-8.15-7.44-2.72-12.54s10.49-8.22,6.6-17.23c-3-7.06-16.79-9.55-22.62-10.3a21.36,21.36,0,0,0-5.3,0c-6.8.83-24.71,4-31.87,15-8.93,13.71-10.1,30.17-7.38,38.78,6.74,21.37,37.27,29.78,52.42,25.86S626.88,101.93,625.76,94.44Zm-60.57,6.27a6.27,6.27,0,1,1,6.21-6.27A6.24,6.24,0,0,1,565.19,100.71Zm1.75-21.55a6.47,6.47,0,1,1,6.4-6.46A6.43,6.43,0,0,1,566.94,79.16Zm16.11,34.09a6.27,6.27,0,1,1,6.21-6.27A6.24,6.24,0,0,1,583.05,113.25Zm1-47.8a6.07,6.07,0,1,1,6-6.07A6,6,0,0,1,584,65.45ZM606,110.51a6.27,6.27,0,1,1,6.21-6.27A6.24,6.24,0,0,1,606,110.51Z"/></svg>