<?xml version="1.0" encoding="utf-8"?>
<!-- Generator: Adobe Illustrator 23.0.3, SVG Export Plug-In . SVG Version: 6.00 Build 0)  -->
<svg version="1.1" id="레이어_1" xmlns="http://www.w3.org/2000/svg" xmlns:xlink="http://www.w3.org/1999/xlink" x="0px"
	 y="0px" viewBox="0 0 414 123" style="enable-background:new 0 0 414 123;" xml:space="preserve">
<style type="text/css">
	.st0{fill:#1D2F6B;stroke:#1D2F6B;stroke-width:5;stroke-miterlimit:10;}
	.st1{fill:#1D2F6B;}
	.st2{fill:#3A497E;}
</style>
<g>
	<path class="st0" d="M77,6.3l2.2-0.1c1.1,0,2.2,0.1,3.4,0.3c6,1,10,3.9,11.9,8.7l0.4,2c0.1,8-4.2,15.7-12.9,23
		c-4.5,3.1-9.2,5.8-14.1,7.9l-0.5,4.1l3.4,0l2.9,0.2c7.4,1.2,12.2,4,14.4,8.2l0.3,1c0.7,6.3-6.6,15-22,26.2c-13,8.6-26,15.5-39,20.7
		l0-0.9c16.1-8.8,27.5-15.4,34-19.9l-0.6-3.6l0.3-5.8c1.6-12.4,2.6-20.2,3-23.4l-2.6,0c-7,0.3-10.8-0.1-11.4-1.1l0-0.4
		c0.4-1.5,2.9-3.1,7.5-4.5c2.9-1,5.4-1.9,7.7-2.9c1.6-11.4,3.2-23.3,4.8-35.5c-6.4,1-13.4,4.2-21,9.4l-1.9,1.7l-2.1,2.4l-0.4,1.7
		c1.7,0.9,3.1,1.3,4.4,1.4c0,0.6-0.4,0.9-1.3,0.9c-3.8,0.1-5.8-0.7-5.9-2.4c0.7-3.1,3.8-6.7,9.3-10.8C59.2,9.8,67.7,6.9,77,6.3z
		 M55.8,52.5c1.7-0.1,4.1-0.1,7.1-0.2l1.6-0.1l0.3-2.8C61.7,50.6,58.7,51.6,55.8,52.5z M62.7,87.1c6.6-4.6,12.4-9.5,17.2-14.6
		c3.3-3.5,5.2-6.7,5.7-9.6l-0.2-1.1c-2.5-4-7.3-6.3-14.4-6.8L67.2,55C65.8,64.8,64.3,75.5,62.7,87.1z M68.4,45
		C79,40,86.2,33.7,89.9,26.2c1.5-2.9,2.1-5.9,1.9-9.2l-0.4-1.5c-3.1-4.4-7.7-6.5-14-6.1l-3.5,0.5C72.9,13.6,71.1,25.3,68.4,45z"/>
	<path class="st0" d="M112.5,36.7l2,0c2.2,0.2,4,0.9,5.4,2.2l1.8,2.5l0.6,3.2l0,2.7c-1.4,4.6-4.9,8.4-10.5,11.5
		c-4.7,2.2-8.4,3.5-11.1,4c0.7,7.5,3.3,11.8,7.8,12.8c4.3,0,8.4-0.8,12.4-2.5l3.6-1.6l3.7-2.1l3.8-2.7l2.3-1.6l-1.2,4.3l-2.5,2.7
		l-2.7,2.2l-2.8,1.5c-5.2,2.7-10.8,4-16.7,3.9C102,79.7,98,74.3,96.3,63.3l-1.4-0.4c-0.8-1-1.3-2.2-1.4-3.7l2.6-0.2
		c0.9-4.2,2.4-8.2,4.4-12C104,41.3,108,37.9,112.5,36.7z M102.6,52.8l-1.7,5.6l3.5-1c7.4-2.5,11.9-5.9,13.6-10.2l0-2.7l-1-2
		l-1.9-1.3l-2.1,0.3C109.3,42.1,105.9,45.9,102.6,52.8z"/>
	<path class="st0" d="M151.9,41.8c-0.5,2.9-0.9,5.8-1.4,8.7l-2.7,17.8l-0.5,4l3.5-2.4c1.5-1.1,4.9-3.7,10-7.9l0.3,0.7l-6,8
		c-2.6,3.8-5.1,6.4-7.4,7.6l-1.8,0.1c-1.3-0.6-2.3-1.8-3-3.7l-0.3-3l3.7-22c0.4-2.6,0.8-5.1,1.2-7.6c-4.2,0.3-8.1,0.6-11.8,0.7
		l-2.6-1l-0.8-0.9l-1.2-1.6c1.1-0.5,6.9-1.2,17.4-2c1.4-9.5,2.4-16.1,2.9-20.1l1.6-11.1c1.4-0.1,2.7,1.6,4,5c-1.4,8.4-2.8,17-4.2,26
		l1.8-0.2l9.1-0.1l2.1,0.6c1.4,0.8,2.3,1.9,2.9,3.2C163.6,41,158,41.3,151.9,41.8z"/>
	<path class="st0" d="M179.1,40.7c-0.5,2.9-0.9,5.8-1.4,8.7L175,67.3l-0.5,4l3.5-2.4c1.5-1.1,4.9-3.7,10-7.9l0.3,0.7l-6,8
		c-2.6,3.8-5.1,6.4-7.4,7.6l-1.8,0.1c-1.3-0.6-2.3-1.8-3-3.7l-0.3-3l3.7-22c0.4-2.6,0.8-5.1,1.2-7.6c-4.2,0.3-8.1,0.6-11.8,0.7
		l-2.6-1l-0.8-0.9l-1.2-1.6c1.1-0.5,6.9-1.2,17.4-2c1.4-9.5,2.4-16.1,2.9-20.1l1.6-11.1c1.4-0.1,2.7,1.6,4,5c-1.4,8.4-2.8,17-4.2,26
		l1.8-0.2l9.1-0.1l2.1,0.6c1.4,0.8,2.3,1.9,2.9,3.2C190.8,39.9,185.3,40.2,179.1,40.7z"/>
	<path class="st0" d="M214.8,32.8l2,0c2.2,0.2,4,0.9,5.4,2.2l1.8,2.5l0.6,3.2l0,2.7c-1.4,4.6-4.9,8.4-10.5,11.5
		c-4.7,2.2-8.4,3.5-11.1,4c0.7,7.5,3.3,11.8,7.8,12.8c4.3,0,8.4-0.8,12.4-2.5l3.6-1.6l3.7-2.1l3.8-2.7l2.3-1.6l-1.2,4.3l-2.5,2.7
		l-2.7,2.2l-2.8,1.5c-5.2,2.7-10.8,4-16.7,3.9c-6.3,0.1-10.3-5.3-12.1-16.2l-1.4-0.4c-0.8-1-1.3-2.2-1.4-3.7l2.6-0.2
		c0.9-4.2,2.4-8.2,4.4-12C206.2,37.4,210.2,34,214.8,32.8z M204.8,48.9l-1.7,5.6l3.4-1c7.4-2.5,11.9-5.9,13.6-10.2l0-2.7l-1-2
		l-1.9-1.3l-2.1,0.3C211.6,38.2,208.1,42,204.8,48.9z"/>
	<path class="st0" d="M251.6,42c-2.3,1.9-4,4.3-5.2,7.3c-1.2,3.8-3,11-5.2,21.4l-1.1,5.2c-1.8-1.3-2.9-3.2-3.3-5.5
		c1.2-5.7,2.3-10.8,3.3-15.2c1-4.5,1-9.4,0.1-14.9l-2.5-5.2c0.1-0.9,0.3-1.7,0.7-2.6l3,0.5c1.6,1.9,2.7,4.4,3.5,7.5L245,42l2-1.9
		c2.7-2.4,5.4-4,8.3-4.8L258,35c2.9,0,5.2,0.4,6.9,1.2c1.5,1.2,2.8,2.5,3.7,3.8l-0.1,3.5l-1.1-0.9c-1.4-1.1-2.9-2.1-4.3-3
		c-2.2-0.3-4.2-0.5-6-0.4C255.3,39.9,253.4,40.8,251.6,42z"/>
	<path class="st0" d="M319.8,37.8c-3.7,2.4-7.5,5.9-11.3,10.6l-4.8,22.9l-1.5,0.3c-1.2-1.5-2.1-3.5-2.6-6c1.7-5.6,3.2-12.9,4.6-21.8
		c0.5-3.3,0.2-6.2-0.8-8.5l0.6-3.1l2.1,0.5c1.5,1,2.6,2.7,3.5,5l0,2.8c4.3-4.4,8.6-7.4,12.7-8.8l1.2,0.8c0.9,1.1,1.5,2.6,1.7,4.6
		l0,2.8c3.9-3.9,7.5-6.9,10.9-9l1.4,0.4c1,0.7,1.8,1.7,2.3,3.1l0.2,3l-0.2,3.9c-0.4,2.8-1.1,8.3-2.1,16.3c-0.4,2.2-0.5,4-0.4,5.1
		c0.2,1.7,0.8,2.7,1.8,3l0.8,0.3l0.8,0c1-0.1,2-0.3,2.9-0.7l3.1-1.8l-0.7,2.6c-0.6,0.9-1.2,1.6-1.7,2.1c-0.5,0.5-1.2,1-1.9,1.6
		l-1.8,0.5c-2,0.2-3.8-0.3-5.3-1.4c-0.7-0.6-1.3-1.4-1.8-2.2c-0.8-1.8-1.1-3.3-0.9-4.6l0-1.9c0.2-1.2,0.7-4.8,1.4-10.7
		c0.6-3.3,1.1-6.7,1.4-10.2c0-0.6-0.1-1.1-0.1-1.6c-3.6,2.4-7.3,5.8-11,10.4l-4.8,22.9l-1.5,0.3c-1.2-1.5-2.1-3.5-2.6-6
		c1.7-5.6,3.2-12.9,4.6-21.8C320.1,41.2,320.1,39.4,319.8,37.8z"/>
	<path class="st0" d="M365.9,27.1l2,0c2.2,0.2,4,0.9,5.4,2.2l1.8,2.5l0.6,3.2l0,2.7c-1.4,4.6-4.9,8.4-10.5,11.5
		c-4.7,2.2-8.4,3.5-11.1,4c0.7,7.5,3.3,11.8,7.8,12.8c4.3,0,8.4-0.8,12.4-2.5l3.6-1.6l3.7-2.1l3.8-2.7l2.3-1.6l-1.2,4.3l-2.5,2.7
		l-2.7,2.2l-2.8,1.5c-5.2,2.7-10.8,4-16.7,3.9c-6.3,0.1-10.3-5.3-12.1-16.2l-1.4-0.4c-0.8-1-1.3-2.2-1.4-3.7l2.6-0.2
		c0.9-4.2,2.4-8.2,4.4-12C357.3,31.7,361.3,28.2,365.9,27.1z M356,43.1l-1.7,5.6l3.4-1c7.4-2.5,11.9-5.9,13.6-10.2l0-2.7l-1-2
		l-1.9-1.3l-2.1,0.3C362.7,32.5,359.2,36.3,356,43.1z"/>
</g>
<g>
	<path class="st1" d="M3.5,120.4c0,0,240.1-75.1,406.8-18.7C410.3,101.7,265.4,53.9,3.5,120.4z"/>
	<g>
		<g>
			<g>
				<g>
					<path class="st2" d="M3.3,119.8c-0.4,0.2-0.1,0.3,1,0l0.7-0.5L3.3,119.8z"/>
					<path class="st2" d="M11.3,118.4c1.3-0.5,2.8-1.1,1.9-1.2c-1.3,0.6-1.6,0.6-3,1.3c-1.2,0.3-2.1,0.4-1.9,0.2
						c-0.4,0.2-1.8,0.4-2.4,0.7c1.6-0.1,3.5-0.6,5.4-1.3C11.8,118.2,11.4,118.4,11.3,118.4z"/>
					<path class="st2" d="M126,96.3l-0.8,0.1C125.4,96.3,125.7,96.3,126,96.3z"/>
					<path class="st2" d="M197.9,88.4c-0.5,0-0.8,0.1-0.8,0.1C197.6,88.4,198,88.4,197.9,88.4z"/>
					<path class="st2" d="M210.2,87.9c-0.3,0-0.5,0-0.7,0C209.8,87.9,210.1,87.9,210.2,87.9z"/>
					<path class="st2" d="M126,96.3l1.9-0.2C128,96,126.9,96.1,126,96.3z"/>
					<path class="st2" d="M26.8,113.9c-0.4,0.1-0.7,0.2-1,0.3C26.1,114.1,26.4,114,26.8,113.9C26.7,113.9,26.8,113.9,26.8,113.9z"/>
					<path class="st2" d="M94.5,101.6l-0.6,0.1c-0.2,0.1-0.3,0.1-0.5,0.2L94.5,101.6z"/>
					<path class="st2" d="M70.5,106.1c0.5-0.1,0.7-0.4,0.9-0.6c-0.3,0.2-0.7,0.3-1.1,0.4C70.2,106,70.3,106.1,70.5,106.1z"/>
					<path class="st2" d="M32.4,113.8l-0.7,0.2C31.9,113.9,32.2,113.8,32.4,113.8z"/>
					<path class="st2" d="M111.8,98.8c0,0,0.1,0.1,0.2,0.1C112,98.8,111.9,98.8,111.8,98.8z"/>
					<path class="st2" d="M31.2,114.1C31.2,114,31.2,114,31.2,114.1C31,114.1,31,114.1,31.2,114.1z"/>
					<path class="st2" d="M3.5,120.3l0.4-0.1c0-0.1,0.1-0.1,0-0.2L3.5,120.3z"/>
					<path class="st2" d="M232.8,87.1c0,0-0.1,0-0.1,0C232.1,87.1,232.4,87.1,232.8,87.1z"/>
					<path class="st2" d="M383,92.6c2.2,0.8-3.8-0.6-0.4,0.5C382.2,93,385.8,93.5,383,92.6z"/>
					<path class="st2" d="M27.4,113.7c0.3-0.1,0.7-0.1,1-0.2C27.9,113.6,27.6,113.7,27.4,113.7z"/>
					<path class="st2" d="M382.5,93.1L382.5,93.1l0.3,0.1C382.7,93.2,382.7,93.2,382.5,93.1z"/>
					<path class="st2" d="M284.8,86.6c-0.1-0.1-0.3-0.1-0.5-0.1C284.3,86.5,284.4,86.5,284.8,86.6z"/>
					<path class="st2" d="M246.1,86.1l1,0C246.6,86.1,246.3,86.1,246.1,86.1z"/>
					<path class="st2" d="M305,86.9c0.5,0,0.7,0.1,1.4,0.1c-0.1,0-0.1,0-0.2,0C305.9,87,305.6,87,305,86.9z"/>
					<path class="st2" d="M325.9,88.4c-0.1,0-0.3-0.1-0.4-0.1c-0.2,0-0.4,0-0.7,0L325.9,88.4z"/>
					<path class="st2" d="M93.3,99.8c-0.5,0-0.8,0-1-0.1C92.6,99.9,89.6,100.6,93.3,99.8z"/>
					<path class="st2" d="M26.8,114c0.1-0.1,0.3-0.2,0.6-0.3C27.2,113.8,27,113.9,26.8,114C26.7,114,26.7,114,26.8,114z"/>
					<path class="st2" d="M305.9,84.8l3.3,0.2C308.3,84.9,307.1,84.8,305.9,84.8z"/>
					<path class="st2" d="M242.4,82.2l-0.8,0.1C242,82.2,242.2,82.2,242.4,82.2z"/>
					<path class="st2" d="M319.2,85.6c0.6,0.1,1.2,0.3,1.9,0.3c0.1,0,0.3,0,0.4,0L319.2,85.6z"/>
					<path class="st2" d="M92.3,99.8C92.3,99.8,92.3,99.8,92.3,99.8C92.3,99.8,92.3,99.8,92.3,99.8z"/>
					<path class="st2" d="M70.9,104.9c3.1-0.7,1.4-0.7,2-1c3.7-0.9,1.8-0.1,3.1-0.2c2.3-0.6,4-1.3,5.7-1.6c0.1,0,0.5,0,0.1,0.1
						c2.4-0.8,7.3-1.5,10.1-2.4c0.2,0,0.3,0,0.4,0c-0.5-0.1-0.6-0.3-0.5-0.4c1.4-0.3,2.5-0.7,3.1-0.6c-0.9,0.2-0.9,0.3-1.3,0.4
						l1.4-0.4c1.4,0.1-2,0.5-1.9,0.8c2.8-0.7,6.1-1.6,8.3-1.9c0.5,0.2-5.1,1.1-2.1,0.8L95.9,99c2.7,0-2.1,0.4,0.4,0.5
						c4.5-0.8,4.9-1.2,9.4-1.9c1-0.4-0.4-0.2,0.6-0.6c6.3-1.5,5.1-0.1,9.7-1.3c1.2-0.4,1.6-0.9,4.9-1.3l-1.1,0.6
						c4.3-0.7,2.4-1,7-1.5c-0.8,0.3-3.4,0.7-2.7,0.6c3-0.2,2-0.6,4.3-0.9l0.5,0.3c4.6-0.8,9.7-1.8,14.8-2.6
						c-0.3,0.1-1.1,0.4,0.1,0.3c3.2-0.6,6.7-1,10.1-1.4c3.4-0.4,6.8-0.8,10-1l2.4-0.6c0.6-0.1,1,0,0.5,0.1c2.4-0.2,0.1-0.2,1.3-0.5
						c1.4-0.2,1.9-0.1,1,0.1c2.1-0.4,5.2-0.9,8.3-1.3c3.1-0.4,6.2-0.7,8.5-0.8l-0.9,0.2c3.5-0.2,3.9-1,7.2-1.1l-0.6,0.1
						c3.8-0.3,7.9-0.6,11.7-1c1.9-0.2,3.8-0.3,5.5-0.4c1.7-0.1,3.4-0.1,4.9-0.1c1.1-0.5,7.6-0.3,8.1-0.9c4.4,0,3.2,0.2,9.4,0.1
						c1.7,0,2.4-0.5,4.5-0.6l0.1,0.3l2.8-0.4l1.5,0.3l1.9-0.2c-0.8,0-1.6-0.1-1.5-0.2c3-0.3,7.3,0.1,7.4,0.2l7.1-0.4
						c-0.2,0.1-1.3,0.2-2.3,0.3c3.8-0.4,0.7,0.3,4.2,0c-0.5-0.1,0.2-0.2,0.3-0.3c1.7,0.1,5.7,0.2,8.6,0.1l-0.6,0.2
						c5.3,0.1,11.1-0.1,17,0.2c-2.1-0.2-1.6-0.5,0.1-0.5l0.7,0.3c1.1-0.2-1.8-0.2,0.5-0.4c2.2,0.1,1.5,0.4,0.2,0.5l2.7,0
						c0.2,0.1-0.5,0.1-0.6,0.3c1.1-0.2,4.6,0.5,6.2,0.2l0.1,0.1c5.9,0.3,8.6,0.4,13.4,0.7c0.1-0.3,2-0.1,3.4-0.2
						c1.8,0.1,3.6,0.4,5.6,0.6c1.9,0.2,4,0.5,6.1,0.7c3,0.1,0.9-0.2,2.2-0.2c0.2,0.3,4.4,0.7,2.2,0.6c1.3,0.1,2.3,0.2,3.3,0.3
						c0.9,0.1,1.8,0.2,2.7,0.3c1.8,0.2,3.8,0.4,7,0.7c-0.7-0.2-1.5-0.3-1-0.4c1.2,0.1,2.6,0.5,2.4,0.6l-0.3,0
						c1.8,0.1,3.7,0.4,5.7,0.7c2,0.3,4,0.8,5.9,1.2c3.9,0.8,7.6,1.6,10.5,1.8l-0.3,0c2,0.2,3.9,0.6,5.9,0.9c2.7,0.6-1.7-0.2,0.3,0.4
						c3.2,0.5,5.7,1,8,1.5c1.2,0.3,2.3,0.5,3.5,0.8c1.2,0.3,2.4,0.6,3.7,0.8c1.9,0.9,5.4,1.8,9.2,2.7c0.9,0.2,1.9,0.5,2.8,0.7
						c0.9,0.3,1.8,0.5,2.7,0.8c1.7,0.5,3.4,1.1,4.6,1.6l-0.3-0.3c1.4,0.3,1.6,0.6,2.6,1c-0.1-0.2-1.4-0.6-0.6-0.4
						c2.3,0.7,4.6,1.4,6.9,2.1l0.7-2.2c-9.7-3-19.8-5.5-29.7-7.5c-4.5-0.9-2.7,0.4-8.3-1l1.7-0.1c-4.6-0.6-9.3-1.3-13.9-2
						c-4.7-0.6-9.3-1.3-13.8-1.6c0.5,0,0.6-0.1,1.4,0c-1.9-0.5-7-0.8-7.1-0.6c-1.4-0.2-0.3-0.2-1.2-0.4c-1.9-0.3-4.8-0.2-5.8-0.5
						c-0.2-0.1,0.5,0,0.9,0c-1.3,0-5.8-0.6-4.6-0.2c-3.4-0.4-6.5-0.4-9.2-0.8c-1.8,0.1-5.8-0.6-6.4-0.2c0.3-0.4-5.9-0.7-8.1-0.7
						c0.7-0.1-1.9-0.3-1-0.4c-2.4-0.1-4.7-0.1-4.3,0.1c-4.5-0.7-9.1,0-11.6-0.7c-3.6,0-7.1,0-10.6,0c-3.4,0-6.7,0.1-10,0.1
						c0.2-0.4,7.2,0,7-0.5c-6.2,0.2-9.8,0.5-16,0.4c-1.6,0,0.9-0.2,1.4-0.3c-6.2,0.3-12,0-17.5,0.5c0,0,0.6-0.1,1.2-0.2
						c-1.1,0-2.5,0-2.4,0.2l1.1-0.1c1.7,0.2-4.3,0.8-4.5,0.9c1.8-0.6-5.5,0-2.5-0.8c-0.7,0.1-1.6,0.2-1.4,0.3
						c-1.1,0-1.4-0.1-0.3-0.3c-3.9,0.2-2.5,0.4-6,0.5c0-0.1,0.7-0.2,1.1-0.3c-1.8,0.3-3.6,0.6-6.5,0.6c0.2-0.1-0.2-0.1,0.7-0.2
						c-2.6,0.1-4.7,0.4-7,0.6c-1.1,0.1-2.3,0.2-3.5,0.3c-1.2,0.1-2.5,0.2-3.9,0.2c1.6-0.5-1.9,0-2.2-0.4l-3,0.3l1.2,0.1
						c-2.6,0.2-5,0.6-7.2,0.6l2-0.3l-4.9,0.4l2.8-0.1c-2.7,0.4,0.3,0.4-3.2,0.6c0.7-0.1-2.6,0.2-4,0.1l0,0c-1.3,0.2-2.6,0.5-4.6,0.6
						c-0.5-0.1,0.4-0.4,0-0.5c-1.3,0.4-6.2,0.6-7.8,1.1c0.5-0.1,0.5-0.3,0.4-0.3l-1.1,0.3c-1.2,0-1.4,0-1.2-0.2
						c-3.7,0.3,1.2,0.3-3.2,0.6c0.3-0.1,0.2-0.1,0.9-0.2c-4.4,0.4-8.4,1.1-12.5,1.4c-1.2-0.2,3.5-0.5,2.1-0.6
						c-5.8,0.6-11.9,1.8-17.5,2.4l1-0.1c-0.7,0.6-4.2,0.3-7,0.9c0.7-0.1,0.9-0.4,0.7-0.3c-3.8,0.4-7.8,1.2-13.6,2.2l0.7-0.2
						c-2.3,0.2-5.9,0.8-8.4,1.1c-0.7,0.2-2.1,0.4-1.2,0.5c-7.6,0.4-14.2,2.7-20.9,3.2c0.8-0.1,1.9-0.4,1.2-0.3
						c-1.9,0.3-3.8,0.7-5.6,1.1c0.5,0.1,0.8,0,2,0c-0.7,0.3-2.3,0.7-3.7,0.9c2.5-0.6-0.1-0.4-1.2-0.3c0.2,0-0.2,0.2-0.1,0.2
						c-3,0.1-0.4,0.5-4.5,1l0.2-0.2c-1.5,0.3-2.8,0.7-4.5,1c-0.7-0.1,1.6-0.4,1.6-0.7c-2.3,0.4-4.4,1.3-6.5,1.4
						c1-0.3,2.3-0.5,3.3-0.8c-2.3,0.1-2.5,0.2-4.2,0.5l0.2,0c-1.3,0.2-2.6,0.4-3.9,0.6l1-0.1c-2.7,1.3-5.8,1.3-9.5,2.5
						c3.6-1.2,0.6-0.4,0.8-0.7c-1,0.1-2.5,0.3-2.1,0.2c-1.8,0.6-3.1,0.4-5.5,1.3c-0.1-0.1-1.9,0.4-1.6,0.1c-2.3,0.6,0.6,0.1,0.4,0.2
						c-1.8,0.5-3.9,0.8-6.3,1.3c-2.3,0.4-4.9,0.9-7.4,1.7c-4.4,1.2-5.2,1.7-9.3,2.8c-1.4,0.2,1.1-0.6,1.1-0.6
						c-2.3,0.4-4,0.8-6.1,1.4c0.4-0.2,0-0.2-0.7-0.1c-1.7,0.4-1.1,0.6-3.3,1c0.4-0.2,0.8-0.5,1.6-0.8c-2,0.6-3.9,1.2-6,1.8
						c-0.6,0,1.2-0.6,1.9-0.8c-2.3,0.6-6,1.6-6.7,2.1l1.5-0.3c-0.8,0.2-0.5-0.1,0.1-0.3c1.9-0.7,2.9-0.6,3-0.5l-1.5,0.4
						c1.7,0.2,5.9-1.5,8.9-2.2L26,115c1-0.4,2-0.7,3-1.1c0.7,0,1.2,0.1-0.3,0.5c2.2-0.3,1.9-0.6,3.8-0.8c0.2,0,0.1,0-0.1,0.1
						l2.1-0.6c-0.4,0.2,0.4,0.2-0.9,0.4c3.8-0.6,6-1.7,7.5-1.7l-0.3,0.1c5.2-1.3,0.4-0.4,4.3-1.6l2.8,0.1l0.4-0.4
						c0.5-0.1,1.6-0.3,1.4-0.2c2-0.7-0.4-0.1,0.8-0.5c2.6-0.3,7.1-1.6,7.8-1.2c0.9-0.4-2.5,0.3,0.2-0.4c0.9,0.4,3.2-0.7,5.6-1
						c-0.7,0.4-3,0.7-0.5,0.5c1.3-0.7,4.6-0.8,6.6-1.3c0-0.4,4.3-1.1,7.7-1.8c-0.2,0.2,6.4-1,9.5-1.4l-0.1,0.1
						c0.5-0.5,3.8-1,6.1-1.5c-0.1,0.2-0.5,0.4-1.7,0.7l2.2-0.4c0.5-0.2,1.2-0.4,2.6-0.7l-0.5,0.4c3-0.5,5.9-1.3,9.7-1.7
						c0.2-0.3-3.1-0.2,0.9-1c0.2,0.1,0.4,0.3-0.7,0.6c0.3-0.1,1.2-0.3,1.9-0.4l-1.6,0.5c1.7-0.2,0.9-0.3,2.3-0.5c0,0.2,1,0,0.9,0.2
						c-0.4,0.1-1.2,0.1-1.7,0.3c1.6-0.2,3.5-0.4,4.1-0.4c-0.2-0.1,0-0.3,1.1-0.5c3-0.5,1,0.1,2.8-0.1c0.7-0.3,2.6-0.4,2.6-0.7
						c0.9-0.1,1,0,1.4,0c1.5-0.4,7.2-1.1,5.4-1.1l-0.4,0c0.1,0,0.2,0,0.2,0c0,0,0,0,0,0l0,0c5-1,10.5-1.4,15.5-2.2l0,0.1
						c3-0.5,6.6-0.9,8.7-1.4c0.9-0.1,2.1-0.1,1.7,0.1c2.3-0.4,2.5-0.5,5.8-0.8c-2.3,0.5,0.8,0.1-2.3,0.4c3-0.3,3.7-0.2,6.8-0.8
						c-1.1,0.4,2.3,0.1,3.7-0.1l-2.1,0c1.6-0.2,3-0.3,4.4-0.5l-0.7,0.4c6.1-0.2,10.9-1.9,15.6-1.6c1.6-0.4-3.3,0.1-1.9-0.3
						c2.8-0.2,5.8,0,6.6-0.1c3.9-0.2,3.5-0.8,7.6-1c-0.5-0.1-1-0.4,2-0.7c2.8-0.1,3.5,0.3,1.7,0.5c-0.7,0.1-1,0-1,0
						c-0.9,0.1-2.1,0.3-1,0.3l0.4-0.1c1.4,0,5.3-0.2,4.4,0c2.1-0.3,0.9-0.3-0.7-0.2c3.6-0.1,5.6-0.4,9.3-0.5c-0.6,0-1.1-0.1-0.6-0.2
						c5.4-0.2,2.4-0.4,6.1-0.7c2.1,0.1-0.7,0.5,3,0.1c2.3,0,0.5,0.3-0.4,0.4c3.4-0.4,6.3-0.2,8.3-0.2l-1.8,0.2
						c1.1-0.1,1.9-0.2,2.8-0.2l-1-0.2c1,0,1.9-0.1,1.9,0c1.1-0.2-0.8-0.4,1.3-0.7c1.4,0,4.2-0.3,4.7,0c-4.4,0,0.5,0.3-3.2,0.5
						c0.7-0.1,1.6-0.1,2.6-0.1c0.2,0-0.1,0.1-0.4,0.1c4.2,0.2,1.9-0.4,6.3-0.5c-0.5,0.2,1,0.3,1.7,0.2c-1.8,0-0.8-0.3,0.8-0.5
						c2.8,0.1,3-0.2,4.5-0.2l-1.7,0c0.6-0.2,2-0.2,3.9-0.3c0.2,0.1-1.8,0.1-1.1,0.2c2.2-0.3,4.9,0.3,7.9,0c1.4,0.1,0.1,0.3,1.4,0.4
						c3.4-0.3,3.7,0.2,7.2,0c-1-0.2-1.2-0.2,1.3-0.4c-1.9,0-3.9,0.1-5.8,0.2l3.7-0.4c-1.8,0-3.7,0.2-4.8,0.2
						c1.8-0.2,1.6-0.2,0.8-0.3c2.4,0.3,4.8-0.3,7.6,0l-0.1,0.6c4.2,0.3,7.4-0.3,12.9,0l-1.7-0.1c0.7-0.2,3.4,0,5.1,0
						c-0.2,0.2,0.9,0.3,1.7,0.4c-0.1-0.1,4,0.1,4.5-0.3l2.4,0.3c4.4,0.3,5-0.3,9.2-0.1c-1.3,0.2,0.6,0.4-2.2,0.4
						c1.4,0.1,2.7,0.2,2.7,0c0.8,0.2,3.9-0.1,5.2,0.2c0.6,0,0.8-0.2,2.4-0.1c0.2,0.1,0,0.1,0,0.1c0-0.1,2.5,0,1.1-0.3
						c2.2,0.4,5.2,0.6,8.1,0.8c3,0.2,5.8,0.4,7.7,0.8c3.1,0.2,6.8,0.5,9.6,0.7c-0.2,0,0,0.1-0.5,0c3.8,0.6,2.4-0.3,6.8,0.3
						c2.2,0.6-2.3-0.1-1,0.2c0.5,0.7,5.3,0.5,8.2,1.2l-0.7,0c2.2,0.5,5.5,0.4,9.1,1c0,0-0.2,0,0,0.1c2.5,0,7.3,0.6,10.8,1
						c-1.1,0.1-1.6-0.1-1,0.2c1.6,0.2-0.4-0.5,2.8-0.1c1,0.3,3.2,0.8,3.5,1.1l-3-0.5c1.5,0.6,3.8,0.6,5.4,1l-0.2,0.1
						c4.5,0.8,4.7,0.4,9.5,1.3l-0.5-0.2c2.7,0.2,2.2,0.7,4.9,0.9l0.7,0.5c1.8,0.3,6.2,1,9.3,1.6c-0.9-0.1-2.3-0.3-3.7-0.5
						c-1.4-0.2-2.9-0.5-4.1-0.6c0.9,0.2,2.3,0.5,3.7,0.8c1.4,0.3,2.6,0.5,3.1,0.5c-0.7-0.1-1.6-0.2-2.3-0.5c2.2,0.2,5,0.7,8.4,1.6
						c-0.5,0.4,2.9,1.2,6,2.2l0.5-1.5c-2.1-0.7-4.1-1.3-5-1.9c-3-0.8-6-1.7-9-2.7c-1.5-0.5-3.1-1-4.7-1.4c-1.6-0.4-3.3-0.9-5.1-1.3
						c2.3,1.2-2.1-0.5-1.8,0.2c-1.6-0.4-2.3-0.6-2.4-0.6c-1.6-0.5-3.2-1.1-4.9-1.6c-1.1-0.4,1.6,0.2,1.5,0.1
						c-3.6-0.9-1.5-0.6-3.8-1.3c0.4,0.3-1.3,0-3.4-0.5l2.8,0.9c-5.1-0.8-4.3-1.4-9.4-2.2l1.7,0.2c-1.3-0.2-3.7-0.8-6.2-1.1
						c-2.4-0.4-4.9-0.7-6.2-0.7c-0.5-0.1-1-0.4,0.1-0.3c-3.2-0.6-6.7-1-10-1.5c-3.4-0.3-6.6-0.7-9-1.1l0.5-0.1
						c-1.2-0.1-2.1,0-3.6-0.3c0.1-0.1,0.5-0.1-0.1-0.2c-0.6,0-3.2-0.2-4.7-0.4c0.5,0,0.9,0,1.4,0c-6.2-0.9-9.6-0.5-14.8-0.9
						c0-0.2-1.2-0.5-2.7-0.7c-1.5-0.2-3.4-0.4-4.6-0.5l0.1-0.1c-3.6-0.3-6.7-0.4-9.7-0.4c-1.5,0-3-0.1-4.5-0.1c-1.5,0-3.1,0-4.8,0
						c-2.1-0.3-5.6-0.5-9.5-0.6c-1.9-0.1-3.9-0.1-5.9-0.1c-1.9,0-3.8-0.1-5.5-0.2c1,0.1-0.2,0.3-1.4,0.4c-1.6-0.1-4.3,0.3-4.1-0.1
						l0.6,0c-0.6-0.2-1.7-0.3-3-0.3c-1.3,0-2.7,0-4,0.1l-0.4,0.5c-3.3-0.3-7.6-0.2-11.6,0c-3.9,0.2-7.5,0.5-9.3,0.2
						c-1.6,0.2-3.6,0.3-5.1,0.5l0.1-0.3c-4.4,0.1-6.6,0.2-12.1,0.6l1.1-0.3c-3.1,0.2-3.8,1.1-6.7,1.3l-0.9-0.4
						c-5.4,0.4-10.8,0.5-16.1,1.3c0.1-0.1,0.2-0.2,1.1-0.3c-2.5,0.2-9.8,0.6-8.8,1.1c-0.1-0.4-5.5,0.5-8.4,1l0.4-0.3
						c-2.4,0.6-2.5,0.7-5.8,1.2c-0.8,0.1-0.7-0.1,0.3-0.2c-2.7,0.2-2.1,0.5-5.3,0.8l1.2-0.3c-2.8,0.3-2.5,0.4-4,0.8
						c-1.7,0.3-5.2,0.6-5.7,0.4c-0.4,0.2-1.8,0.6-3.5,0.8c-0.2-0.1,0.4-0.2,0.6-0.3c-4.6,0.4-6.8,1.3-10,1.4
						c-0.1-0.1-0.3-0.1-0.6-0.1c3.7-0.5,6.6-0.9,6.3-0.8c0-0.3-3,0.1-0.7-0.6c-2.3,0.5-6.3,1.5-9.2,1.8c-0.1,0-0.3,0-0.4,0l0.3-0.1
						c-0.7,0.1-1.3,0.2-1.8,0.3c-0.9,0.1-1.5,0.2-2.4,0.3c-0.4-0.2-3.4,0.4-4.9,0.6c0.2,0.3-1.8,0.5,0.1,0.5c-0.2,0,0.3-0.1,1.2-0.2
						c0.2,0,0.5-0.1,0.6-0.1c0,0-0.1,0-0.1,0c1-0.2,2.2-0.4,3.6-0.6c-1.1,0.3-2.3,0.6-4,0.7c-0.7,0.3-1.5,0.6-2,0.8
						c-2.1-0.1-6,0.3-6.5,0.2c-4.4,0.9-10.5,1.8-13.2,2.9c-1.3,0.3-1.5,0.1-2,0.1c0.7-0.2,1.6-0.3,2-0.5c-2.5,0.6-7.5,1.4-8,1.9
						c-3.2,0.4,1.7-0.7-2.6,0.2l0.6-0.2c-8.7,1.1-13.8,3.6-23.5,4.8c0.7-0.1,1-0.1,1.2-0.1c-5.5,0.9-11,2.3-16.6,3.5
						c-5.5,1.3-11.1,2.6-16.5,3.7c-3.1,0.6-3.3,0.9-5.1,1.6l-0.7-0.1l-3.1,1.1c-4.4,1.4-7.9,1.2-13.4,3.2l0.8,0
						c-2,0.5-6.4,1.8-6.1,1.5c-0.2,0.1-0.6,0.4-1.4,0.5l-0.1-0.1l-4.9,1.6c-3.9,1,0.4-0.8-5.2,0.8c-2.1,0.7-5.8,2.2-5,2.1
						c0.8-0.3,2.2-0.6,2.3-0.4l-1.9,0.7c-0.2,0.6-1.5,1.4,3.2,0.4l3.2-1.2l1.1-0.1l-2.7,0.8c1.6-0.3,2.5-0.7,3.6-1.1
						c0.3,0,0.8,0,1.4-0.2l3.1-1.3c0.4,0.1-1.3,0.7,0.8,0.2c1.4-0.6-1.5,0,0.9-0.8c1.6-0.2,1.2,0.1,3-0.6c0.3,0-0.1,0.2-0.8,0.5
						c1.6-0.6,4.3-1.2,5.1-1.7c1.7-0.2,5.5-1.5,5.4-1c0.5-0.2,2.8-1.1,4.3-1.5c-2.6,1.2,5.6-1.4,5.1-0.6c1.9-1,7.3-2,10.9-3.1
						c-0.2,0.1-0.6,0.3-0.9,0.3c2-0.4,2.7-0.5,4-0.7c0.2-0.4,3.3-1.3,5-1.9c2.6-0.2-1.4,0.8-0.5,1c-0.2-0.3,4.3-1.3,3.4-1.4
						c2-0.2,1.7-0.3,2.7-0.2c0.2-0.6,1.8-0.5,3.3-1.1c2.8-0.4,0.8,0.3,3.8-0.5C73.6,104.1,70.9,104.9,70.9,104.9z M143.7,90.8
						L143.7,90.8c-0.6,0.1-1.2,0.2-1.5,0.3C142.5,91,142.9,90.9,143.7,90.8z M149.8,89.9c-0.8,0.1-1.7,0.2-2.7,0.4
						c-0.2-0.1,0-0.2,0.6-0.3C147.5,90.1,148.9,89.9,149.8,89.9z M136.5,89.9c1-0.2,1.3-0.2,1.4-0.1c-0.5,0.1-1,0.2-1.7,0.3
						c0,0-0.1,0-0.1,0.1C136.2,90,136.3,89.9,136.5,89.9z"/>
					<path class="st2" d="M134.8,90.5c-0.1,0-0.2,0-0.4,0.1c0.2,0,0.4,0,0.6,0c0.1,0,0.2-0.1,0.3-0.1
						C135.2,90.4,135,90.5,134.8,90.5z"/>
					<path class="st2" d="M125.1,96.3l0.1,0c-0.1,0-0.2,0-0.3,0C125,96.3,125,96.3,125.1,96.3z"/>
					<polygon class="st2" points="235.5,82.6 235.5,82.5 235,82.6 					"/>
					<path class="st2" d="M91,100.9c-0.1,0-0.2,0-0.5,0C90.6,100.9,90.8,100.9,91,100.9z"/>
					<path class="st2" d="M76.4,103.5l-2.1,0.3C75.2,103.7,75.9,103.6,76.4,103.5z"/>
					<path class="st2" d="M65.2,105.6c-0.1,0.1-0.2,0.1-0.2,0.2l0,0L65.2,105.6z"/>
					<path class="st2" d="M245.2,84.3c0.2,0,0.3,0,0.4,0C246.7,84.2,246,84.2,245.2,84.3z"/>
					<path class="st2" d="M191.3,87.8c0.6-0.1,1.1-0.2,1.7-0.3C192.1,87.6,191.4,87.7,191.3,87.8z"/>
					<path class="st2" d="M305.6,84.7C305.6,84.7,305.6,84.7,305.6,84.7c0.1,0,0.2,0,0.4,0L305.6,84.7z"/>
					<path class="st2" d="M195.6,87.3c-1,0-1.8,0.1-2.5,0.2C193.8,87.5,194.8,87.4,195.6,87.3z"/>
					<path class="st2" d="M16.9,116.2l-0.5,0.1c0,0,0,0-0.1,0.1L16.9,116.2z"/>
					<path class="st2" d="M16.3,116.4l-0.6,0.2C16,116.5,16.2,116.5,16.3,116.4z"/>
					<path class="st2" d="M14.5,117l1.2-0.4C15.3,116.7,14.7,116.8,14.5,117z"/>
					<path class="st2" d="M31.6,112.9l0.1-0.1C31.7,112.8,31.6,112.8,31.6,112.9z"/>
					<path class="st2" d="M36.1,111.8c-1.1,0.2-2.7,0.4-4.2,0.8l-0.1,0.1C32.4,112.4,35.1,112.2,36.1,111.8z"/>
					<path class="st2" d="M55.1,109l-3.8,0.7c0.7,0,1.6-0.1-0.1,0.3C56,109.3,50.1,109.9,55.1,109z"/>
					<path class="st2" d="M66.8,106.7c-2,0.5,0.1,0.1,0,0.2C68,106.6,68.3,106.5,66.8,106.7z"/>
					<path class="st2" d="M151.8,93l-0.2,0.3C153.2,93,151.6,93.1,151.8,93z"/>
					<polygon class="st2" points="168,89.8 166.4,89.8 165.7,90.1 					"/>
					<path class="st2" d="M177.8,90.6l-0.7,0.1c0.9-0.1,1.8-0.2,2.6-0.3L177.8,90.6z"/>
					<path class="st2" d="M322.1,88.3l-0.5-0.4C320.6,87.9,320.4,88.3,322.1,88.3z"/>
					<path class="st2" d="M384,96.1c0.6,0.3,2.3,0.7,3.4,0.8C386,96.6,384.7,96.2,384,96.1z"/>
					<polygon class="st2" points="252,79.6 253.3,79.5 250.9,79.6 					"/>
				</g>
			</g>
		</g>
	</g>
</g>
</svg>
