<svg xmlns="http://www.w3.org/2000/svg" viewBox="0 0 623.25 321.06"><defs><style>.cls-1{font-size:200px;stroke:#1d2f6b;stroke-miterlimit:10;stroke-width:5px;font-family:yleeMHIM, ylee MHIM;}.cls-1,.cls-3{fill:#1d2f6b;}.cls-2{letter-spacing:0.01em;}</style></defs><title>logo</title><g id="레이어_7" data-name="레이어 7"><text class="cls-1" transform="translate(9.88 206.55)">A<tspan class="cls-2" x="138.67" y="0">r</tspan><tspan x="185.64" y="0">tFind</tspan></text><path class="cls-3" d="M794.94,309.42c-31.64,0-57.28,25.87-57.28,57.79S763.3,425,794.94,425s57.27-25.87,57.27-57.79S826.57,309.42,794.94,309.42Zm0,109.51c-28.31,0-51.26-23.16-51.26-51.72s23-51.72,51.26-51.72,51.25,23.16,51.25,51.72S823.24,418.93,794.94,418.93Z" transform="translate(-228.96 -309.42)"/><path class="cls-3" d="M834.76,378.44a13.36,13.36,0,0,0-15.14-11.36c-6.6,1.18-8.15-7.44-2.72-12.54s10.49-8.22,6.6-17.23c-3-7.06-16.79-9.55-22.62-10.3a21.36,21.36,0,0,0-5.3,0c-6.8.83-24.71,4-31.87,15-8.93,13.71-10.1,30.17-7.38,38.78,6.74,21.37,37.27,29.78,52.42,25.86S835.88,385.93,834.76,378.44Zm-60.57,6.27a6.27,6.27,0,1,1,6.21-6.27A6.24,6.24,0,0,1,774.19,384.71Zm1.75-21.55a6.47,6.47,0,1,1,6.4-6.46A6.43,6.43,0,0,1,775.94,363.16Zm16.11,34.09a6.27,6.27,0,1,1,6.21-6.27A6.24,6.24,0,0,1,792.05,397.25Zm1-47.8a6.07,6.07,0,1,1,6-6.07A6,6,0,0,1,793,349.45ZM815,394.51a6.27,6.27,0,1,1,6.21-6.27A6.24,6.24,0,0,1,815,394.51Z" transform="translate(-228.96 -309.42)"/></g></svg>