<svg xmlns="http://www.w3.org/2000/svg" viewBox="0 0 191.28 38.64"><defs><style>.a{fill:#1d2f6b;}</style></defs><title>자산 2</title><path class="a" d="M5.22,52.8V19.74h5.64l.6,4.68h.12a24.77,24.77,0,0,1,4.65-3.87A10.2,10.2,0,0,1,21.84,19a9.61,9.61,0,0,1,5.82,1.59A9.53,9.53,0,0,1,30.9,25,27.83,27.83,0,0,1,36,20.67,10.14,10.14,0,0,1,41.64,19q5.16,0,7.65,3.39T51.78,32V52.8h-7V32.88q0-4.26-1.32-6.09A4.76,4.76,0,0,0,39.36,25,6.92,6.92,0,0,0,35.85,26a18.08,18.08,0,0,0-3.93,3.36V52.8H25V32.88q0-4.26-1.32-6.09A4.83,4.83,0,0,0,19.5,25,7,7,0,0,0,16,26a16.7,16.7,0,0,0-3.9,3.36V52.8Z" transform="translate(-5.22 -15)"/><path class="a" d="M75.06,53.64a15,15,0,0,1-7.65-2.07,15.53,15.53,0,0,1-5.76-5.94,18.66,18.66,0,0,1-2.19-9.33,18.79,18.79,0,0,1,2.19-9.39A15.22,15.22,0,0,1,75.06,19a15,15,0,0,1,5.82,1.17,14.8,14.8,0,0,1,5,3.39A16.12,16.12,0,0,1,89.28,29a20,20,0,0,1,1.26,7.35,18.66,18.66,0,0,1-2.19,9.33,15.68,15.68,0,0,1-5.7,5.94A14.68,14.68,0,0,1,75.06,53.64Zm0-5.76a7.16,7.16,0,0,0,4.47-1.44,9.11,9.11,0,0,0,2.91-4,16.67,16.67,0,0,0,1-6.09,16.67,16.67,0,0,0-1-6.09,9.32,9.32,0,0,0-2.91-4.08,7.07,7.07,0,0,0-4.47-1.47,7.16,7.16,0,0,0-4.53,1.47,9.32,9.32,0,0,0-2.91,4.08,16.67,16.67,0,0,0-1,6.09,16.67,16.67,0,0,0,1,6.09,9.11,9.11,0,0,0,2.91,4A7.26,7.26,0,0,0,75.06,47.88Z" transform="translate(-5.22 -15)"/><path class="a" d="M98.7,52.8V19.74h5.64l.6,5.94h.12a15.16,15.16,0,0,1,4.26-4.95A8.7,8.7,0,0,1,114.48,19a9.9,9.9,0,0,1,2,.18,10.82,10.82,0,0,1,1.62.48l-1.2,6.06a9.26,9.26,0,0,0-3.36-.54,7.32,7.32,0,0,0-4.2,1.59,12.07,12.07,0,0,0-3.78,5.55V52.8Z" transform="translate(-5.22 -15)"/><path class="a" d="M136.14,53.64A16.28,16.28,0,0,1,128,51.57a15.12,15.12,0,0,1-5.82-5.94A18.87,18.87,0,0,1,120,36.3a19.65,19.65,0,0,1,1.26-7.23,16.46,16.46,0,0,1,3.42-5.46,15.34,15.34,0,0,1,4.86-3.45,13.46,13.46,0,0,1,5.52-1.2,13.26,13.26,0,0,1,7.38,1.95A12.28,12.28,0,0,1,147,26.37a20,20,0,0,1,1.56,8.19q0,1-.09,1.95a9.67,9.67,0,0,1-.27,1.59H126.78a12.66,12.66,0,0,0,1.65,5.37A9.52,9.52,0,0,0,132,47a10.05,10.05,0,0,0,5,1.23,12.65,12.65,0,0,0,4.14-.66,17.69,17.69,0,0,0,3.72-1.8l2.4,4.38a24.47,24.47,0,0,1-5.07,2.52A17.43,17.43,0,0,1,136.14,53.64ZM126.72,33.3h15.84a10.15,10.15,0,0,0-1.89-6.54,6.64,6.64,0,0,0-5.49-2.34,7.67,7.67,0,0,0-3.84,1,8.52,8.52,0,0,0-3,3A11.91,11.91,0,0,0,126.72,33.3Z" transform="translate(-5.22 -15)"/><path class="a" d="M179,46v-13H166.86V28H179V15h5.34V28H196.5v5H184.32V46Z" transform="translate(-5.22 -15)"/></svg>