<?xml version="1.0" encoding="utf-8"?>
<!-- Generator: Adobe Illustrator 23.0.3, SVG Export Plug-In . SVG Version: 6.00 Build 0)  -->
<svg version="1.1" id="레이어_1" xmlns="http://www.w3.org/2000/svg" xmlns:xlink="http://www.w3.org/1999/xlink" x="0px"
	 y="0px" viewBox="0 0 323.5 323.5" style="enable-background:new 0 0 323.5 323.5;" xml:space="preserve">
<g>
	<rect x="130" y="0" width="193" height="25"/>
	<path d="M322.5,0.5v24h-192v-24H322.5 M323.5-0.5h-194v26h194V-0.5L323.5-0.5z"/>
</g>
<g>
	<rect x="66" y="74.5" width="257" height="25"/>
	<path d="M322.5,75v24h-256V75H322.5 M323.5,74h-258v26h258V74L323.5,74z"/>
</g>
<g>
	<rect x="0" y="149" width="323" height="25"/>
	<path d="M322.5,149.5v24H0.5v-24H322.5 M323.5,148.5h-324v26h324V148.5L323.5,148.5z"/>
</g>
<g>
	<rect x="66" y="223.5" width="257" height="25"/>
	<path d="M322.5,224v24h-256v-24H322.5 M323.5,223h-258v26h258V223L323.5,223z"/>
</g>
<g>
	<rect x="130" y="298" width="193" height="25"/>
	<path d="M322.5,298.5v24h-192v-24H322.5 M323.5,297.5h-194v26h194V297.5L323.5,297.5z"/>
</g>
</svg>
