<?xml version="1.0" encoding="utf-8"?>
<!-- Generator: Adobe Illustrator 23.0.3, SVG Export Plug-In . SVG Version: 6.00 Build 0)  -->
<svg version="1.1" id="레이어_1" xmlns="http://www.w3.org/2000/svg" xmlns:xlink="http://www.w3.org/1999/xlink" x="0px"
	 y="0px" viewBox="0 0 323.5 323.5" style="enable-background:new 0 0 323.5 323.5;" xml:space="preserve">
<rect x="70.5" y="158.5" width="195" height="6"/>
<g>
	<path d="M160.5,263.7c-14.4,0-28-2.8-40.8-8.2c-12.8-5.5-24-13.1-33.7-22.7l19.3-22.7c7.6,7.4,16.2,13.4,26,17.9
		c9.8,4.5,19.8,6.8,30,6.8c12.5,0,22.1-2.7,28.9-8.2c6.7-5.5,10.1-12.6,10.1-21.3c0-6.4-1.4-11.6-4.3-15.5
		c-2.8-3.9-6.8-7.2-11.8-9.8c-5-2.7-10.8-5.4-17.2-8.2l-29-12.5c-6.8-2.8-13.5-6.6-20-11.2c-6.5-4.6-11.9-10.5-16.2-17.6
		c-4.3-7.1-6.4-15.8-6.4-26c0-11,2.9-20.8,8.8-29.6c5.9-8.7,14-15.6,24.4-20.6c10.4-5,22.3-7.5,35.5-7.5c12.3,0,24,2.4,35,7.1
		c11,4.7,20.4,11.2,28.1,19.3l-16.8,21c-6.6-5.9-13.7-10.5-21.2-13.8c-7.5-3.3-15.9-5-25.2-5c-10.8,0-19.3,2.4-25.6,7.2
		c-6.3,4.8-9.4,11.3-9.4,19.5c0,6.1,1.6,11,4.8,14.9c3.2,3.9,7.4,7.1,12.7,9.7c5.2,2.6,10.6,5,16.1,7.2l28.7,12.2
		c8.3,3.4,15.7,7.6,22.2,12.5c6.4,4.9,11.5,10.9,15.1,17.9c3.6,7,5.4,15.7,5.4,26.2c0,11.2-2.9,21.4-8.8,30.6
		c-5.9,9.2-14.3,16.6-25.3,22.2C189,260.9,175.8,263.7,160.5,263.7z"/>
</g>
</svg>
