<?xml version="1.0" encoding="utf-8"?>
<!-- Generator: Adobe Illustrator 23.0.3, SVG Export Plug-In . SVG Version: 6.00 Build 0)  -->
<svg version="1.1" id="레이어_1" xmlns="http://www.w3.org/2000/svg" xmlns:xlink="http://www.w3.org/1999/xlink" x="0px"
	 y="0px" viewBox="0 0 323.5 323.5" style="enable-background:new 0 0 323.5 323.5;" xml:space="preserve">
<path d="M164,276.1c-11.7,0-22.3-1.7-32-5.2c-9.7-3.4-17.9-8.9-24.8-16.4c-6.9-7.5-12.3-17.2-16.1-29.3c-3.8-12.1-5.7-26.7-5.7-43.9
	V60.5h33.3v122.9c0,15.9,2,28.5,5.9,37.8c3.9,9.3,9.3,15.9,16.1,19.8c6.8,3.9,14.6,5.9,23.4,5.9c9,0,16.9-2,23.8-5.9
	c6.9-3.9,12.3-10.5,16.4-19.8c4-9.3,6-21.9,6-37.8V60.5h32.2v120.9c0,17.2-1.9,31.9-5.6,43.9c-3.7,12.1-9,21.8-15.9,29.3
	c-6.9,7.5-15.2,12.9-24.8,16.4C186.4,274.4,175.7,276.1,164,276.1z"/>
<rect x="66.4" y="279.5" width="195" height="6"/>
</svg>
